<svg width="23" height="21" viewBox="0 0 23 21" fill="none" xmlns="http://www.w3.org/2000/svg">
<path d="M7.85376 0.232139H13.0435V5.42192H7.85376V0.232139ZM0.129434 15.6808H5.31921V20.8706H0.129434V15.6808ZM0.129434 7.95646H5.31921V13.1462H0.129434V7.95646ZM0.129434 0.232139H5.31921V5.42192H0.129434V0.232139ZM13.0435 11.0945V7.95646H7.85376V13.1462H10.9918L13.0435 11.0945ZM21.8541 9.64616L20.3454 8.1375C20.265 8.01681 20.1443 7.95646 19.9834 7.95646C19.8627 7.95646 19.742 8.01681 19.6213 8.1375L18.4747 9.28408L20.7679 11.5169L21.8541 10.3703C21.9748 10.2899 22.0351 10.1692 22.0351 10.0082C22.0351 9.84731 21.9748 9.72662 21.8541 9.64616ZM9.18138 18.5774V20.8706H11.4142L19.9834 12.241L17.7505 10.0082L9.18138 18.5774ZM15.5781 0.232139H20.7679V5.42192H15.5781V0.232139Z" fill="white"/>
</svg>
