<svg width="27" height="20" viewBox="0 0 27 20" fill="none" xmlns="http://www.w3.org/2000/svg">
<path d="M3.00874 14.8015C1.39951 13.152 0.59489 11.1807 0.59489 8.88754C0.59489 6.59438 1.39951 4.64319 3.00874 3.03395C4.65821 1.38449 6.62952 0.559757 8.92268 0.559757H13.4486V3.0943H8.92268C7.31344 3.0943 5.94559 3.65753 4.81913 4.784C3.69267 5.91046 3.12943 7.27831 3.12943 8.88754C3.12943 10.4968 3.69267 11.8646 4.81913 12.9911C5.94559 14.1176 7.31344 14.6808 8.92268 14.6808H9.58649V12.1462L13.4486 16.0084L9.58649 19.8706V17.2757H8.92268C6.62952 17.2757 4.65821 16.4509 3.00874 14.8015ZM16.0435 14.6808H26.3024V17.2757H16.0435V14.6808ZM16.0435 7.62027H26.3024V10.2152H16.0435V7.62027ZM16.0435 0.559757H26.3024V3.0943H16.0435V0.559757Z" fill="white"/>
</svg>
