<svg width="27" height="18" viewBox="0 0 27 18" fill="none" xmlns="http://www.w3.org/2000/svg">
<path d="M6.9916 4.68919H0.59489V2.0943H6.9916V4.68919ZM6.9916 8.55135H0.59489V11.1462H6.9916V8.55135ZM24.492 17.5429L19.604 12.6549C19.081 12.9767 18.5177 13.2382 17.9143 13.4394C17.3108 13.6003 16.6872 13.6808 16.0435 13.6808C14.8366 13.6808 13.7504 13.3992 12.7848 12.8359C11.8193 12.2727 11.0348 11.5083 10.4313 10.5428C9.8681 9.53701 9.58649 8.45078 9.58649 7.28408C9.58649 6.07716 9.8681 4.99092 10.4313 4.02538C11.0348 3.05984 11.8193 2.29545 12.7848 1.73222C13.7504 1.12876 14.8366 0.827029 16.0435 0.827029C17.2102 0.827029 18.2763 1.12876 19.2419 1.73222C20.2477 2.29545 21.0322 3.05984 21.5954 4.02538C22.1586 4.99092 22.4402 6.07716 22.4402 7.28408C22.4402 7.92777 22.3397 8.55135 22.1385 9.15482C21.9776 9.75828 21.7362 10.3014 21.4144 10.7842L26.3024 15.7326L24.492 17.5429ZM19.9057 7.28408C19.9057 6.55993 19.7247 5.91623 19.3626 5.353C19.0005 4.74954 18.5177 4.28688 17.9143 3.96504C17.351 3.60296 16.7275 3.42192 16.0435 3.42192C15.3194 3.42192 14.6556 3.60296 14.0521 3.96504C13.4889 4.28688 13.0262 4.74954 12.6641 5.353C12.3423 5.91623 12.1814 6.55993 12.1814 7.28408C12.1814 7.96801 12.3423 8.6117 12.6641 9.21516C13.0262 9.77839 13.4889 10.241 14.0521 10.6031C14.6556 10.9652 15.3194 11.1462 16.0435 11.1462C16.7275 11.1462 17.351 10.9652 17.9143 10.6031C18.5177 10.241 19.0005 9.77839 19.3626 9.21516C19.7247 8.6117 19.9057 7.96801 19.9057 7.28408ZM0.59489 17.5429H13.4486V15.0084H0.59489V17.5429Z" fill="white"/>
</svg>
