<svg width="240" height="39" viewBox="0 0 240 39" fill="none" xmlns="http://www.w3.org/2000/svg">
<g filter="url(#filter0_d_200_778)">
<path d="M12.1507 5.1833H3.55074V0.989222H26.9359V5.1833H18.2088V32H12.1507V5.1833ZM29.6525 0.989222H39.4811C41.5428 0.989222 43.4209 1.28577 45.1155 1.87888C46.8101 2.44373 48.1658 3.40399 49.1825 4.75966C50.2275 6.08707 50.75 7.92286 50.75 10.267C50.75 12.4135 50.2134 14.1787 49.1401 15.5626C48.0951 16.9182 46.7112 17.9209 44.9884 18.5705C43.2938 19.22 41.4863 19.5448 39.5658 19.5448H36.0919V32H30.288V3.57345L29.6525 0.989222ZM36.1343 5.1833V15.4355H39.6929C41.2745 15.4355 42.4748 14.9554 43.2938 13.9951C44.1411 13.0066 44.5648 11.7639 44.5648 10.267C44.5648 8.71367 44.1553 7.4851 43.3362 6.58132C42.5454 5.64931 41.3451 5.1833 39.7352 5.1833H36.1343ZM54.0627 0.989222H73.5503V5.1833H60.5021V13.9527H70.5001V18.1468H60.5021V27.8059H73.5503V32H54.6981V3.57345L54.0627 0.989222ZM113.682 16.537C113.682 19.5307 113.075 22.1997 111.86 24.5438C110.646 26.8598 108.909 28.6814 106.649 30.0088C104.418 31.3363 101.778 32 98.7273 32H87.7126V3.57345C87.7126 3.54521 87.6561 3.33339 87.5431 2.93798C87.4584 2.54258 87.3596 2.13306 87.2466 1.70942C87.1336 1.28577 87.063 1.04571 87.0348 0.989222H98.7697C101.142 0.989222 103.246 1.3705 105.082 2.13306C106.918 2.86738 108.471 3.92649 109.742 5.31039C111.041 6.6943 112.016 8.33239 112.665 10.2247C113.343 12.1169 113.682 14.221 113.682 16.537ZM107.412 16.7064C107.412 15.266 107.243 13.868 106.904 12.5123C106.593 11.1284 106.071 9.88575 105.336 8.78427C104.63 7.6828 103.698 6.80727 102.54 6.15768C101.41 5.50809 100.027 5.1833 98.3884 5.1833H93.5589V27.8059H98.4732C100.62 27.8059 102.342 27.2834 103.642 26.2384C104.969 25.1652 105.929 23.7813 106.522 22.0867C107.115 20.3921 107.412 18.5987 107.412 16.7064ZM116.699 0.989222H123.139V32H117.292V3.57345C117.292 3.54521 117.236 3.33339 117.123 2.93798C117.038 2.54258 116.953 2.13306 116.869 1.70942C116.784 1.28577 116.727 1.04571 116.699 0.989222ZM142.227 0.48085C143.328 0.48085 144.557 0.593821 145.913 0.819764C147.297 1.04571 148.624 1.39874 149.895 1.87888C151.194 2.35901 152.267 3.00859 153.115 3.82764L150.022 7.30152C149.118 6.62369 148.299 6.08707 147.565 5.69167C146.859 5.26803 146.096 4.95736 145.277 4.75966C144.458 4.56195 143.441 4.4631 142.227 4.4631C140.476 4.4631 138.993 4.80202 137.779 5.47985C136.593 6.12944 135.632 7.01909 134.898 8.14881C134.192 9.27853 133.669 10.5636 133.33 12.004C133.02 13.4161 132.864 14.8847 132.864 16.4099C132.864 17.709 133.02 19.0647 133.33 20.4769C133.641 21.8608 134.135 23.1599 134.813 24.3744C135.491 25.5606 136.367 26.535 137.44 27.2975C138.541 28.0318 139.869 28.399 141.422 28.399C142.749 28.399 143.907 28.1307 144.896 27.5941C145.913 27.0575 146.703 26.309 147.268 25.3488C147.833 24.3603 148.116 23.1882 148.116 21.8325V19.2059H141.676L142.227 15.4779H154.004L153.92 23.2729C153.891 24.7415 153.891 26.2102 153.92 27.6788C153.976 29.1192 154.047 30.5737 154.131 32.0423H151.124L149.683 28.8226C148.299 30.1218 146.901 31.0538 145.489 31.6187C144.077 32.1835 142.396 32.466 140.448 32.466C138.16 32.466 136.155 32.0565 134.432 31.2374C132.709 30.4184 131.269 29.3028 130.111 27.8906C128.981 26.4502 128.134 24.7839 127.569 22.8916C127.004 20.9711 126.722 18.9376 126.722 16.7911C126.722 14.3623 127.061 12.1593 127.738 10.1823C128.444 8.17705 129.461 6.45423 130.789 5.01384C132.116 3.54521 133.74 2.42961 135.66 1.66705C137.581 0.876251 139.77 0.48085 142.227 0.48085ZM157.988 0.989222H164.427V32H158.581V3.57345C158.581 3.54521 158.524 3.33339 158.412 2.93798C158.327 2.54258 158.242 2.13306 158.157 1.70942C158.073 1.28577 158.016 1.04571 157.988 0.989222ZM176.271 5.1833H167.671V0.989222H191.057V5.1833H182.33V32H176.271V5.1833ZM204.185 0.989222L215.157 32H208.887L205.837 23.1034H196.601L193.509 32H188.594L199.567 0.989222H204.185ZM201.219 8.36063L198.042 18.9517H204.439L201.219 8.36063ZM217.481 0.989222H223.92V27.8059H236.079V32H218.032V3.57345L217.481 0.989222Z" fill="#4A64C3"/>
</g>
<defs>
<filter id="filter0_d_200_778" x="0.469733" y="0.480865" width="238.69" height="38.1472" filterUnits="userSpaceOnUse" color-interpolation-filters="sRGB">
<feFlood flood-opacity="0" result="BackgroundImageFix"/>
<feColorMatrix in="SourceAlpha" type="matrix" values="0 0 0 0 0 0 0 0 0 0 0 0 0 0 0 0 0 0 127 0" result="hardAlpha"/>
<feOffset dy="3.08105"/>
<feGaussianBlur stdDeviation="1.54052"/>
<feComposite in2="hardAlpha" operator="out"/>
<feColorMatrix type="matrix" values="0 0 0 0 0 0 0 0 0 0 0 0 0 0 0 0 0 0 0.25 0"/>
<feBlend mode="normal" in2="BackgroundImageFix" result="effect1_dropShadow_200_778"/>
<feBlend mode="normal" in="SourceGraphic" in2="effect1_dropShadow_200_778" result="shape"/>
</filter>
</defs>
</svg>
